<?xml version="1.0" encoding="UTF-8"?>
<svg version="1.1" xmlns="http://www.w3.org/2000/svg" width="1247" height="1191">
<path d="M0 0 C411.51 0 823.02 0 1247 0 C1247 393.03 1247 786.06 1247 1191 C835.49 1191 423.98 1191 0 1191 C0 797.97 0 404.94 0 0 Z " fill="#FEFDFB" transform="translate(0,0)"/>
<path d="M0 0 C7.09196261 7.00362855 13.69199001 14.46198383 20.23046875 21.98046875 C23.01220299 25.15520738 25.84262651 28.2855865 28.671875 31.41796875 C30.22914589 33.14507623 31.78120856 34.8768935 33.328125 36.61328125 C37.18513614 40.93601993 41.09218283 45.14337712 45.22996521 49.19752502 C46.92932925 50.92803404 48.5004453 52.71449422 50.07055664 54.56225586 C54.56726716 59.72932295 59.39911898 64.54256029 64.24609375 69.37890625 C65.22598053 70.35946881 66.20571901 71.34017959 67.18531799 72.32102966 C69.2268264 74.36400213 71.27010566 76.40518169 73.31469727 78.44506836 C75.91452404 81.03919866 78.50983373 83.63779434 81.10381985 86.2377634 C83.12249396 88.26007825 85.14357733 90.2799719 87.1653614 92.29917717 C88.58232324 93.71516246 89.99729817 95.13313515 91.41221619 96.55116272 C95.92466109 101.04740235 100.48185634 105.41854025 105.33106995 109.55125427 C107.8570611 111.74398781 110.16295645 114.10664215 112.5 116.5 C116.20017481 120.25058244 119.97668507 123.84442628 123.984375 127.265625 C126.30114621 129.25912581 128.55419984 131.31554388 130.8125 133.375 C134.27530082 136.50422827 137.80679003 139.50500349 141.4375 142.4375 C145.24087503 145.51336588 148.90082652 148.68753166 152.5 152 C156.91290344 156.05662087 161.45500762 159.88673693 166.1171875 163.65234375 C169.28016507 166.22815611 172.39304977 168.85719643 175.5 171.5 C181.27621873 176.40484646 187.11940071 181.22057925 193 186 C194.26192505 187.03229994 195.5236295 188.0648696 196.78515625 189.09765625 C204.44419322 195.35867379 212.15800175 201.52051042 220.03564453 207.50537109 C222.39056632 209.29717214 224.74012542 211.09591221 227.08984375 212.89453125 C235.9875881 219.69934107 244.89445849 226.47457067 254 233 C255.35332748 233.97982973 256.7061453 234.96036357 258.05859375 235.94140625 C266.20557975 241.84706233 274.38526148 247.70163215 282.6171875 253.48828125 C286.90885934 256.50980756 291.17410862 259.56456428 295.4206543 262.64916992 C317.18233281 278.45283876 339.49125534 293.40713784 361.89419556 308.27957153 C365.90464529 310.94201786 369.91295855 313.60757517 373.91674805 316.2800293 C374.7176738 316.81460754 375.51859955 317.34918579 376.34379578 317.89996338 C377.84842239 318.90459555 379.35277012 319.90964561 380.85676575 320.91522217 C385.60821786 324.08757248 390.38760362 327.21397304 395.1875 330.3125 C395.95118896 330.80580811 396.71487793 331.29911621 397.50170898 331.80737305 C398.11860596 332.20480713 398.73550293 332.60224121 399.37109375 333.01171875 C404.83777809 336.53865069 410.29589203 340.07865466 415.75 343.625 C417.13288208 344.52085815 417.13288208 344.52085815 418.54370117 345.43481445 C423.96698251 348.96425152 429.31174442 352.58821007 434.62026978 356.28781128 C443.5218357 362.47045992 452.58941719 368.41086453 461.61816406 374.40527344 C494.96793122 396.55539405 494.96793122 396.55539405 508 406.25 C508.78560303 406.83152832 509.57120605 407.41305664 510.38061523 408.01220703 C515.57080944 411.87659561 520.63872848 415.84648969 525.6015625 420 C528.01041683 422.00868634 530.46731118 423.94248635 532.9375 425.875 C538.28778601 430.14849889 543.31073312 434.75501365 548.3125 439.42578125 C550.13089719 441.12211011 551.95579526 442.81126961 553.78125 444.5 C571.46133011 460.88544412 571.46133011 460.88544412 579.19921875 469.921875 C581.19153636 472.22103545 583.25156625 474.44970854 585.3125 476.6875 C609.9386992 504.13286005 629.53902087 537.31565481 639 573 C639.20496094 573.76989258 639.40992188 574.53978516 639.62109375 575.33300781 C648.88140489 610.48284895 645.86211385 649.4304212 627.54150391 681.23974609 C625.29527208 685.01292664 622.90318742 688.66168571 620.41479492 692.27856445 C604.7707936 715.01791549 594.44130746 739.7820495 590 767 C589.73848145 768.38807861 589.73848145 768.38807861 589.47167969 769.80419922 C586.73455625 788.34920222 588.08960527 809.00052068 593 827 C593.39182833 828.58141259 593.78111625 830.1634566 594.16796875 831.74609375 C596.50771466 841.02267846 599.66638424 849.44493266 604 858 C604.62876812 859.31001715 605.2549464 860.62127962 605.87890625 861.93359375 C609.96107523 870.43525097 614.48035227 878.32506126 620 886 C620.68707031 886.96164062 621.37414062 887.92328125 622.08203125 888.9140625 C630.18000997 899.97400461 639.03901499 910.56636126 649 920 C644.52933693 921.37625502 640.79727969 920.30898677 636.3515625 919.26953125 C635.50258392 919.07783859 634.65360535 918.88614594 633.77890015 918.68864441 C631.97744204 918.2800077 630.17697207 917.86699393 628.37744141 917.44995117 C625.67173721 916.8233241 622.9632597 916.21024111 620.25390625 915.59960938 C610.4017884 913.36089636 600.68577527 910.88051912 591 908 C589.35383272 907.53432436 587.70677676 907.07177147 586.05859375 906.61328125 C531.4050814 891.27821067 478.86069831 871.24476262 428 846 C427.38840027 845.69709045 426.77680054 845.39418091 426.14666748 845.08209229 C386.72993245 825.53594696 349.63532259 801.50865686 315.74121094 773.43701172 C313.2184228 771.35496868 310.6690823 769.30593205 308.125 767.25 C303.81342452 763.72351736 299.67948418 760.03637701 295.5703125 756.27734375 C291.85212018 752.98295754 287.96086826 749.9152525 284.0546875 746.84765625 C283.37664062 746.23792969 282.69859375 745.62820313 282 745 C282 744.34 282 743.68 282 743 C286.62771857 744.48055988 291.15141642 746.18411826 295.68774414 747.91870117 C325.77566505 759.39114436 356.64149344 769.4826129 388.55078125 774.4453125 C391.30621208 774.88842822 394.04788628 775.36596225 396.79296875 775.8671875 C412.79455302 778.77211707 428.85250915 781.06827917 445 783 C446.00015137 783.12149414 447.00030273 783.24298828 448.03076172 783.36816406 C468.26953146 785.72519096 488.66041836 785.19615324 509 785 C508.43396561 784.78544159 507.86793121 784.57088318 507.28474426 784.349823 C486.86857116 776.59268777 466.58978563 768.49803979 446.31567383 760.37841797 C441.63787578 758.50502551 436.95883553 756.63475823 432.27946186 754.76530552 C415.39488198 748.01854624 398.51572576 741.26000827 381.7109375 734.31640625 C380.60960983 733.86173981 379.50828217 733.40707336 378.37358093 732.93862915 C365.45676306 727.57338821 352.70626875 721.84325759 340 716 C338.96008911 715.52273468 338.96008911 715.52273468 337.89916992 715.03582764 C280.92428374 688.868476 225.30686814 658.17296844 176.80078125 618.1171875 C173.23311907 615.17357184 169.59424568 612.33152804 165.9375 609.5 C160.96876618 605.62882879 156.13644763 601.62344184 151.375 597.5 C150.81417725 597.01466797 150.25335449 596.52933594 149.67553711 596.02929688 C147.77169431 594.3659081 145.8836244 592.68626535 144 591 C143.14414307 590.23389404 142.28828613 589.46778809 141.40649414 588.6784668 C133.59754807 581.607116 126.09837891 574.25281939 118.66186523 566.79223633 C116.67610324 564.80107223 114.6849926 562.81536779 112.69335938 560.83007812 C106.58475862 554.72500348 100.54359678 548.63103591 95 542 C94.06270117 540.91666631 93.12392687 539.83460722 92.18359375 538.75390625 C79.9397931 524.55339431 68.07329904 510.13575576 57 495 C56.19731689 493.90703613 56.19731689 493.90703613 55.37841797 492.79199219 C44.56213862 478.04223173 34.49732168 462.92398254 24.7890625 447.42578125 C23.10299065 444.73735058 21.39818158 442.06538778 19.6484375 439.41796875 C19.00132812 438.43441406 18.35421875 437.45085937 17.6875 436.4375 C17.13449219 435.61121094 16.58148438 434.78492188 16.01171875 433.93359375 C15.67785156 433.29550781 15.34398437 432.65742187 15 432 C15.33 431.34 15.66 430.68 16 430 C16.55945313 430.52207031 17.11890625 431.04414062 17.6953125 431.58203125 C24.82859005 438.13042592 32.32852418 444.10237733 40 450 C41.19109375 450.91990723 41.19109375 450.91990723 42.40625 451.85839844 C53.38208882 460.32870088 64.45941386 468.59680225 75.85009766 476.50048828 C78.06964872 478.04857852 80.27606152 479.61402548 82.48046875 481.18359375 C129.27073888 514.40638878 179.01201333 543.38004178 230.4609375 568.7421875 C232.66853558 569.83579762 234.86794916 570.94301253 237.0625 572.0625 C279.35480116 593.6167488 323.63480598 611.11827766 367.9740448 627.93611145 C374.42045199 630.38576329 380.84398374 632.89036164 387.26171875 635.4140625 C395.24299378 638.55001665 403.24483928 641.62531591 411.26953125 644.6484375 C412.29139526 645.03340393 413.31325928 645.41837036 414.36608887 645.81500244 C415.90794861 646.39577545 415.90794861 646.39577545 417.48095703 646.98828125 C444.39825504 657.12761703 470.80605533 667.85922987 496.86889648 680.05126953 C499.11264984 681.09140419 499.11264984 681.09140419 502 682 C486.39121833 668.84945155 470.27972008 656.53798579 453.16308594 645.40917969 C450.66821236 643.78385121 448.18185821 642.14585199 445.6953125 640.5078125 C427.97779484 628.86155387 409.97335596 617.74315938 391.77856445 606.8605957 C383.3524506 601.8200599 374.95608694 596.73161463 366.56915283 591.62628174 C359.78017885 587.49447008 352.9806169 583.38173455 346.15625 579.30859375 C322.29640387 565.06456208 322.29640387 565.06456208 312.9223938 558.8759613 C308.53807009 555.98610779 304.10713337 553.18636675 299.640625 550.42578125 C290.68446428 544.85548617 281.89375529 539.04707923 273.125 533.1875 C272.33529816 532.66053528 271.54559631 532.13357056 270.73196411 531.59063721 C260.01176312 524.43172654 249.36455587 517.20683007 239.02490234 509.50390625 C236.7616102 507.82294657 234.4851715 506.16077645 232.20703125 504.5 C223.22622188 497.94125019 214.3717435 491.25572556 205.67382812 484.32666016 C203.95162673 482.96165981 202.21965176 481.61004984 200.484375 480.26171875 C194.07726046 475.27772207 187.78664722 470.19242903 181.61743164 464.91625977 C178.42133835 462.18619202 175.18037562 459.53383605 171.875 456.9375 C167.31947634 453.33135041 163.0662772 449.44945835 158.796875 445.51171875 C156.03762266 443.03378683 153.20452825 440.69581273 150.3125 438.375 C146.33163443 435.16316528 142.66445789 431.82671206 139.14453125 428.1171875 C137.28177764 426.27818485 135.37689436 424.58786209 133.39160156 422.88500977 C128.94365604 419.00420606 124.7567709 414.90123039 120.58984375 410.72265625 C119.81870743 409.95247665 119.04757111 409.18229706 118.25306702 408.38877869 C116.63419847 406.77058627 115.01657449 405.15114788 113.40014648 403.53051758 C110.94431282 401.06932768 108.48318635 398.61352191 106.02148438 396.15820312 C104.43978347 394.57584133 102.85839283 392.99316933 101.27734375 391.41015625 C100.55111313 390.68594986 99.82488251 389.96174347 99.0766449 389.21559143 C95.05963087 385.18034248 91.20982789 381.05316365 87.49736023 376.73547363 C85.3500691 374.24671571 83.11164143 371.84592111 80.875 369.4375 C71.92365748 359.71719572 63.25144972 349.78158534 55.15966797 339.33154297 C52.25582148 335.5821801 49.28596269 331.89842706 46.26635742 328.24169922 C38.74883462 319.1195884 31.81031007 309.65750519 25 300 C24.36658691 299.10861328 23.73317383 298.21722656 23.08056641 297.29882812 C-0.93097016 263.48438963 -21.68975831 227.38640299 -39.875 190.125 C-40.19244171 189.48009613 -40.50988342 188.83519226 -40.83694458 188.17074585 C-41.73074322 186.3498547 -42.61178048 184.52271614 -43.4921875 182.6953125 C-44.00120605 181.64359863 -44.51022461 180.59188477 -45.03466797 179.50830078 C-45.35322754 178.68056152 -45.67178711 177.85282227 -46 177 C-45.505 176.01 -45.505 176.01 -45 175 C-44.03066528 175.97266563 -44.03066528 175.97266563 -43.04174805 176.96498108 C-36.9248653 183.10197455 -30.80552451 189.23650434 -24.68347168 195.36834049 C-21.53682529 198.5201858 -18.3911077 201.67294617 -15.24755859 204.82788086 C-12.20882145 207.87755386 -9.16758496 210.92471437 -6.12466431 213.97021294 C-4.96929202 215.12742031 -3.81479407 216.28550138 -2.66122437 217.44450569 C3.38239426 223.5154387 9.47358743 229.44280412 16 235 C17.34259467 236.22954633 18.67849462 237.46656465 20 238.71875 C20.99 239.65267578 20.99 239.65267578 22 240.60546875 C23.33333333 241.86848958 24.66666667 243.13151042 26 244.39453125 C30.57346049 248.70894808 35.23928157 252.89337977 40 257 C40.57153809 257.49371094 41.14307617 257.98742187 41.73193359 258.49609375 C43.38119688 259.91711729 45.03358212 261.33439742 46.6875 262.75 C47.28344971 263.26022705 47.87939941 263.7704541 48.4934082 264.29614258 C58.24438311 272.63702796 68.04304727 280.90512674 78 289 C79.27369492 290.04395684 80.54711436 291.08824984 81.8203125 292.1328125 C89.1688633 298.15046791 96.57549008 304.03783833 104.22070312 309.67724609 C106.31850112 311.23677814 108.40154438 312.81506581 110.484375 314.39453125 C120.42413436 321.92032089 130.47534278 329.24172832 140.72680664 336.3371582 C144.0367978 338.63206298 147.33832717 340.93799268 150.62866211 343.26098633 C161.62006704 351.01596916 172.73339765 358.55629809 183.98217773 365.93261719 C186.56796395 367.6285837 189.15039082 369.32957323 191.73242188 371.03125 C206.39993417 380.68207083 221.14644177 390.22935678 236.25 399.1875 C237.9401563 400.19522507 239.63026012 401.20303815 241.3203125 402.2109375 C242.52155762 402.92588379 242.52155762 402.92588379 243.74707031 403.65527344 C245.7291939 404.83836151 247.70610937 406.02929488 249.6796875 407.2265625 C260.94622933 414.05525203 272.37626694 420.60181359 283.80078125 427.16162109 C286.7027467 428.82918823 289.60181134 430.50166236 292.5 432.17578125 C304.57556352 439.13487028 316.79182818 445.80986449 329.06396484 452.41503906 C333.6360949 454.88321371 338.19233089 457.38025826 342.75 459.875 C351.14204269 464.46290489 359.56572736 468.99035832 368 473.5 C392.75443093 486.74108272 417.38117703 500.19177889 441.52001953 514.53173828 C444.43437728 516.25717119 447.35587548 517.97022855 450.27734375 519.68359375 C470.30228442 531.45166943 489.98260308 543.64967838 509 557 C509 554.67294373 505.52979533 552.14219265 503.9375 550.4375 C500.7751493 547.03895713 497.6576377 543.61690973 494.625 540.1015625 C490.93947968 535.87198677 487.03970094 531.89168917 483.0625 527.9375 C482.39798828 527.26912109 481.73347656 526.60074219 481.04882812 525.91210938 C476.53149543 521.4035397 471.85553644 517.1408742 467 513 C466.46479736 512.54310791 465.92959473 512.08621582 465.37817383 511.61547852 C463.8807386 510.34354169 462.37788933 509.07798775 460.875 507.8125 C457.41465628 504.89745645 453.96221888 501.97494004 450.54296875 499.01171875 C443.68398342 493.07125277 436.71436003 487.33376305 429.546875 481.76953125 C427.16176827 479.91627439 424.79917008 478.03917847 422.453125 476.13671875 C413.32319996 468.73354308 403.94784586 461.71795711 394.45263672 454.79101562 C390.39781864 451.83002166 386.35492896 448.85287472 382.3125 445.875 C381.12684448 445.00234497 381.12684448 445.00234497 379.91723633 444.11206055 C374.24873294 439.93492945 368.61696015 435.71096242 362.99414062 431.47265625 C357.98095553 427.70650721 352.90571871 424.03194385 347.8125 420.375 C341.07473016 415.53231659 334.4628065 410.56827759 327.91015625 405.47705078 C323.8518646 402.33892904 319.76796965 399.2341891 315.6875 396.125 C314.78056396 395.43317627 313.87362793 394.74135254 312.93920898 394.02856445 C308.21168701 390.42710694 303.46640605 386.85280675 298.69116211 383.31494141 C290.86882572 377.51238323 283.32744753 371.41956868 275.84375 365.1875 C272.80772737 362.65945003 269.73309332 360.18926312 266.625 357.75 C262.14536569 354.19509561 257.9649249 350.35539102 253.76171875 346.48046875 C251.19774872 344.17761024 248.57294016 342.01784203 245.875 339.875 C238.58510732 333.98700976 231.89617645 327.45813353 225.11376953 321.00048828 C223.18137555 319.17165526 221.23493559 317.36037833 219.27734375 315.55859375 C211.86354317 308.73311022 204.63675968 301.74023395 197.5 294.625 C196.24449341 293.37638184 196.24449341 293.37638184 194.96362305 292.10253906 C190.70443488 287.83266338 186.62490431 283.48358319 182.69335938 278.91162109 C179.78048829 275.62330209 176.6350911 272.57449218 173.5 269.5 C169.08321302 265.12562018 164.73918373 260.76122535 160.7265625 256.0078125 C158.8881921 253.86997905 156.98130672 251.80263406 155.06298828 249.73657227 C150.2233316 244.52305416 145.63333651 239.18190407 141.171875 233.63671875 C139.06243651 231.07579972 136.87112352 228.62876545 134.625 226.1875 C130.64388144 221.81377979 126.9833368 217.25671222 123.36328125 212.58569336 C120.38677698 208.74872926 117.34860062 204.97368619 114.2565918 201.22924805 C107.31777141 192.81191797 100.86380022 184.11216014 94.56445312 175.20849609 C93.07686476 173.1085079 91.57906857 171.01623615 90.078125 168.92578125 C56.487227 121.97699949 26.71973076 72.005122 6 18 C5.69658691 17.21463867 5.39317383 16.42927734 5.08056641 15.62011719 C4.21452508 13.37392473 3.35514714 11.12536027 2.5 8.875 C2.11654419 7.87049805 2.11654419 7.87049805 1.7253418 6.84570312 C0 2.23831835 0 2.23831835 0 0 Z " fill="#2D2D2A" transform="translate(135,130)"/>
<path d="M0 0 C1.69633269 2.54449904 2.49224667 4.15926389 3.3671875 6.9921875 C3.61082031 7.77287598 3.85445312 8.55356445 4.10546875 9.35791016 C4.35941406 10.1885498 4.61335937 11.01918945 4.875 11.875 C5.14183594 12.73270996 5.40867187 13.59041992 5.68359375 14.47412109 C6.82824978 18.16038354 7.95520761 21.85156392 9.0703125 25.546875 C13.74185686 41.01400507 19.46556018 56.01125804 25.625 70.9375 C25.97282532 71.78317535 26.32065063 72.62885071 26.67901611 73.50015259 C32.72919461 88.1898672 39.09428462 102.68899611 46 117 C46.41910645 117.87527344 46.83821289 118.75054687 47.27001953 119.65234375 C53.45649 132.51981061 60.37258939 144.92052259 67.46875 157.3046875 C69.28352462 160.4990612 71.04822219 163.71876198 72.80761719 166.94384766 C78.79122059 177.88928435 85.35065328 188.44942504 92 199 C92.56235352 199.8976709 93.12470703 200.7953418 93.70410156 201.72021484 C102.47125654 215.71211352 111.58562545 229.43554054 121 243 C121.52835449 243.76151367 122.05670898 244.52302734 122.60107422 245.30761719 C129.94842778 255.86722523 137.54519591 266.23616622 145.20458984 276.57080078 C147.01468269 279.01986576 148.81534754 281.47559138 150.61328125 283.93359375 C160.70564886 297.72113883 171.21832918 311.0920685 182.015625 324.33203125 C184.34161088 327.18592613 186.64709557 330.05491835 188.9375 332.9375 C201.29434211 348.41607064 213.95727443 363.65527988 227.41015625 378.1953125 C232.01783708 383.1852293 236.5451596 388.24816568 241.06640625 393.31640625 C251.82047103 407.74783943 251.82047103 407.74783943 265.30297852 417.21777344 C266.31803467 417.26450195 267.33309082 417.31123047 268.37890625 417.359375 C313.60246319 419.79012918 356.57482444 432.64785035 389.61474609 464.66162109 C390.80926144 465.81571576 392.02212082 466.95076858 393.23828125 468.08203125 C403.84722556 478.18072573 411.21547686 490.15463618 418 503 C418.57878906 504.06476563 419.15757812 505.12953125 419.75390625 506.2265625 C424.73495362 515.68930412 427.41279803 525.56204177 430.0625 535.875 C430.24329102 536.54740723 430.42408203 537.21981445 430.61035156 537.91259766 C431.49467384 541.34078206 432.01081178 544.28870372 432.14453125 547.859375 C432.46183194 553.04374559 432.91716979 557.02688409 436.75195312 560.65966797 C441.96524735 564.54617647 447.67863709 567.62458091 453.32617188 570.82568359 C459.95550945 574.67610013 466.25864447 579.06561402 472.61175537 583.349823 C475.57378879 585.34590649 478.54355663 587.33031805 481.51324463 589.31498718 C484.34396043 591.20731482 487.17205227 593.10353879 490 595 C486.25077699 597.49948201 482.60272792 597.9979945 478.25 598.76953125 C477.37277786 598.93064392 476.49555573 599.09175659 475.5917511 599.25775146 C473.70818487 599.60275163 471.82403014 599.94455117 469.93936157 600.28347778 C466.98452142 600.81528581 464.03154047 601.35649898 461.07885742 601.90014648 C452.72187936 603.43534416 444.36145032 604.94625608 435.98828125 606.390625 C418.54329019 609.42969291 401.36363495 613.33959924 384.99829102 620.24584961 C383 621 383 621 381 621 C381.71437298 616.77797542 383.01803547 612.91015436 384.4375 608.875 C392.87687174 583.88902464 388.96519894 559.55435855 378.55859375 535.6953125 C377.16505541 533.01940127 375.65862119 530.52019329 374 528 C373.28199219 526.8965625 372.56398438 525.793125 371.82421875 524.65625 C354.11129876 498.28014786 329.05663949 484.99890507 298.75488281 477.43994141 C295.05529246 476.84913479 291.39247863 476.83746897 287.65625 476.83203125 C286.85070679 476.82870285 286.04516357 476.82537445 285.21520996 476.82194519 C283.51066658 476.81689297 281.80611336 476.81453634 280.1015625 476.81469727 C277.53628443 476.81253065 274.97145095 476.79441224 272.40625 476.77539062 C259.65171151 476.73015902 247.71620174 478.01308642 235.375 481.375 C234.24191406 481.66890625 234.24191406 481.66890625 233.0859375 481.96875 C221.89122587 484.95652777 211.27552586 489.46720447 200.63476562 493.99609375 C199.70470703 494.38410156 198.77464844 494.77210938 197.81640625 495.171875 C196.98568604 495.5234668 196.15496582 495.87505859 195.29907227 496.23730469 C193 497 193 497 189 497 C187.29754251 494.70846754 185.90490738 492.52913998 184.5 490.0625 C183.61748059 488.58472365 182.73060115 487.10954416 181.83984375 485.63671875 C181.37690918 484.87020996 180.91397461 484.10370117 180.43701172 483.31396484 C173.87764309 472.75166517 166.26595247 462.80993242 158.49609375 453.1171875 C157.01092497 451.26246968 155.53935091 449.39652132 154.09765625 447.5078125 C139.76866441 428.88325855 121.96379272 410.3096197 103.41015625 395.9140625 C100.76654316 393.81459667 98.33585257 391.56048751 95.875 389.25 C89.33274469 383.23819782 82.27662963 377.94819438 75.16992188 372.62597656 C73.10318275 371.0773174 71.04285714 369.52054761 68.984375 367.9609375 C65.0057172 364.95208063 61.00820676 361.96935857 57 359 C56.29794434 358.47937988 55.59588867 357.95875977 54.87255859 357.42236328 C46.67866088 351.3676049 38.38872985 345.5214954 29.8203125 340.0078125 C28.05635369 338.86673575 26.29269299 337.72519808 24.52929688 336.58325195 C23.62155518 335.99573151 22.71381348 335.40821106 21.77856445 334.80288696 C14.31753163 329.96175442 6.89049491 325.06844633 -0.53857422 320.1784668 C-2.4394887 318.92793406 -4.34119025 317.67859697 -6.24365234 316.43041992 C-12.51513592 312.31559479 -18.76790437 308.17423794 -25 304 C-26.06667908 303.29034088 -26.06667908 303.29034088 -27.15490723 302.56634521 C-39.23416087 294.48480037 -47.66455034 285.54541195 -54.8125 272.8125 C-55.40651611 271.77150146 -56.00053223 270.73050293 -56.61254883 269.65795898 C-75.49875497 236.31086129 -90.0970705 201.71760774 -101 165 C-101.28641357 164.03803711 -101.57282715 163.07607422 -101.86791992 162.08496094 C-109.60124913 135.64875534 -116.44194915 106.7102119 -116 79 C-113.36037053 81.35862263 -111.93419037 83.76312828 -110.35546875 86.91796875 C-109.85055908 87.91320557 -109.34564941 88.90844238 -108.82543945 89.93383789 C-108.28491943 91.00754639 -107.74439941 92.08125488 -107.1875 93.1875 C-84.47908699 137.56436893 -55.92993831 178.7748163 -24 217 C-23.37279053 217.75458496 -23.37279053 217.75458496 -22.73291016 218.52441406 C-16.82615034 225.62286968 -10.7537809 232.5285655 -4.48046875 239.3046875 C-2.4709078 241.48830491 -0.50232358 243.69237731 1.4375 245.9375 C5.91828858 251.09463403 10.57439738 256.08900689 15.22640991 261.0909729 C16.35617892 262.30701468 17.48460235 263.52430896 18.61123657 264.74325562 C30.60568025 277.71150158 43.05595408 290.21150114 55.55712891 302.6875 C58.44930845 305.57392171 61.33688848 308.46489706 64.22322083 311.35716438 C66.48121771 313.61879185 68.7416115 315.87801169 71.00271606 318.13653183 C72.06862415 319.20178073 73.13381198 320.2677509 74.19821167 321.33450699 C79.4347355 326.58010441 84.68726247 331.75904668 90.33862305 336.5622406 C93.02547578 338.88744908 95.51167398 341.40361308 98 343.9375 C98.48855469 344.43056641 98.97710938 344.92363281 99.48046875 345.43164062 C100.65603525 346.61873229 101.82838826 347.80900498 103 349 C101.40037792 345.35354966 99.12952555 342.57999905 96.625 339.5 C90.39821692 331.62309065 85.44072202 323.02901459 80.39013672 314.37158203 C78.80903908 311.67421946 77.19381353 308.99920798 75.57006836 306.32739258 C73.69248928 303.23065082 71.84585083 300.11572364 70 297 C69.5678418 296.27393555 69.13568359 295.54787109 68.69042969 294.79980469 C52.97438057 268.2741263 40.15948795 240.70305288 29 212 C28.73727295 211.32461182 28.4745459 210.64922363 28.20385742 209.95336914 C21.84379678 193.55110749 16.17291437 177.10667484 12 160 C11.72736328 158.91944336 11.45472656 157.83888672 11.17382812 156.72558594 C-0.77183201 109.27550832 -13.21165561 48.36668899 0 0 Z " fill="#2D2E2A" transform="translate(598,151)"/>
<path d="M0 0 C4.48203445 3.84727741 8.75162967 7.89832754 13 12 C13.66515625 12.60199219 14.3303125 13.20398438 15.015625 13.82421875 C38.20945437 35.33812122 48.91259415 68.78514586 50.3515625 99.4921875 C50.92982236 118.82139432 48.84367731 138.52834482 40 156 C39.38232716 157.29211582 38.76658618 158.58515617 38.15234375 159.87890625 C22.50717958 192.42773313 -3.21795173 218.01726729 -37.5 230.3125 C-71.98610094 242.1212194 -108.02862005 240.74355826 -141.09765625 225.12109375 C-165.2569516 213.07371584 -185.89351673 193.57387828 -199 170 C-199.50789062 169.12988281 -200.01578125 168.25976562 -200.5390625 167.36328125 C-217.05936531 137.10550739 -220.66975076 101.24019014 -211.60546875 68.23046875 C-209.42702496 60.90464722 -206.70720083 54.06214762 -203.25 47.25 C-202.89784424 46.55608154 -202.54568848 45.86216309 -202.18286133 45.1472168 C-201.13131939 43.09310237 -200.06845621 41.04535969 -199 39 C-198.44183594 37.92878906 -197.88367188 36.85757813 -197.30859375 35.75390625 C-180.98068459 6.12760361 -150.46294615 -14.28420915 -118.61328125 -24.00390625 C-117.42089844 -24.33261719 -116.22851562 -24.66132812 -115 -25 C-113.87980469 -25.31839844 -112.75960937 -25.63679687 -111.60546875 -25.96484375 C-74.1188389 -34.77806009 -29.70565741 -24.50652178 0 0 Z " fill="#B53A2A" transform="translate(975,816)"/>
<path d="M0 0 C6.38306714 4.08132673 10.46514125 9.41928269 12.15234375 16.87109375 C13.07597564 24.77738275 12.04605458 30.50027861 7.15234375 36.87109375 C2.7339805 41.60928491 -2.55155577 44.96345664 -9.09765625 45.30859375 C-15.42653138 45.04222695 -21.17546993 43.23267539 -25.96484375 39 C-31.32802281 33.11385535 -33.14165833 28.47668698 -33.22265625 20.43359375 C-33.25101563 19.15613281 -33.279375 17.87867188 -33.30859375 16.5625 C-32.55613799 10.53647718 -29.28940444 6.90326032 -24.78515625 3.05859375 C-24.11355469 2.47464844 -23.44195313 1.89070312 -22.75 1.2890625 C-17.03686653 -2.96939223 -6.42235743 -2.54603745 0 0 Z " fill="#2F2F2B" transform="translate(930.84765625,681.12890625)"/>
<path d="M0 0 C0.66 0 1.32 0 2 0 C1.56009522 3.43125732 0.84896457 6.56797397 -0.3125 9.8125 C-0.88496389 11.5383936 -1.44598361 13.26809658 -2 15 C-2.35835937 16.10214844 -2.71671875 17.20429687 -3.0859375 18.33984375 C-10.18797808 42.46492929 -6.55094122 68.76408593 1.51245117 92.15551758 C2.05800136 93.75423882 2.53564982 95.37583452 3 97 C2.505 97.99 2.505 97.99 2 99 C0.15172566 95.3874638 -1.55049545 91.7910119 -3 88 C-3.99 88 -4.98 88 -6 88 C-6.74716457 83.21929921 -7.47677035 78.4363428 -8.19116211 73.65063477 C-8.43585844 72.02753069 -8.68509943 70.40510428 -8.93920898 68.78344727 C-11.48613443 52.49216677 -11.48613443 52.49216677 -10.30444336 44.18798828 C-9.99763255 41.98298553 -9.95677342 39.91095121 -10 37.6875 C-10 34.31557498 -9.65967346 31.29836732 -9 28 C-8.34 28 -7.68 28 -7 28 C-7.20625 26.80375 -7.4125 25.6075 -7.625 24.375 C-8.13581838 20.4423982 -7.56734717 17.6878757 -6 14 C-5.34 14 -4.68 14 -4 14 C-3.34 11.03 -2.68 8.06 -2 5 C-1.34 5 -0.68 5 0 5 C0 3.35 0 1.7 0 0 Z M-10 51 C-9 53 -9 53 -9 53 Z M-7 74 C-6 76 -6 76 -6 76 Z " fill="#FBE3DA" transform="translate(766,872)"/>
<path d="M0 0 C-0.66 0.66 -1.32 1.32 -2 2 C-2.99644531 1.55914063 -3.99289062 1.11828125 -5.01953125 0.6640625 C-8.84679257 -0.97550427 -12.73195518 -2.33176436 -16.6875 -3.625 C-17.33783203 -3.8415625 -17.98816406 -4.058125 -18.65820312 -4.28125 C-21.74885662 -5.30201629 -24.82518285 -6.27662394 -28 -7 C-28 -7.66 -28 -8.32 -28 -9 C-28.90878906 -8.96519531 -28.90878906 -8.96519531 -29.8359375 -8.9296875 C-34.27300862 -8.83411981 -38.30157035 -8.95590644 -42.625 -10 C-47.17023311 -11.01726646 -51.60917659 -11.19173723 -56.25 -11.1875 C-57.26054443 -11.1884668 -57.26054443 -11.1884668 -58.29150391 -11.18945312 C-61.28902349 -11.1568311 -64.1394019 -10.97661986 -67.09765625 -10.48046875 C-70.21431221 -9.96452167 -73.03417982 -10.00748496 -76.1875 -10.125 C-82.62201751 -10.16872266 -87.92348973 -9.00315304 -94 -7 C-96.26888298 -6.26478705 -98.53977724 -5.53575605 -100.8125 -4.8125 C-101.85019531 -4.46832031 -102.88789062 -4.12414062 -103.95703125 -3.76953125 C-107.09380231 -2.97627849 -109.77875447 -2.86036454 -113 -3 C-103.77217881 -9.1518808 -92.68665878 -10.83684711 -82 -13 C-80.83960205 -13.26586914 -80.83960205 -13.26586914 -79.65576172 -13.53710938 C-52.6177171 -18.24975256 -24.37805391 -11.52417094 0 0 Z " fill="#993A29" transform="translate(953,802)"/>
<path d="M0 0 C0 0.66 0 1.32 0 2 C-2.11115768 3.65327923 -4.20440485 5.15094674 -6.4375 6.625 C-7.44490234 7.2905188 -7.44490234 7.2905188 -8.47265625 7.96948242 C-30.48716871 22.1372631 -55.71785069 29.17252889 -81.8125 29.1875 C-83.48022461 29.20586914 -83.48022461 29.20586914 -85.18164062 29.22460938 C-92.33859821 29.23717279 -99.01184993 28.55009236 -106 27 C-106 26.67 -106 26.34 -106 26 C-99.24602533 25.89086935 -92.58165666 26.00081098 -85.84521484 26.4597168 C-77.16216251 27.04070379 -69.56586917 26.79439903 -61.11328125 24.484375 C-58.30497602 23.84069691 -55.48056623 23.5044109 -52.625 23.125 C-47.80501293 22.41033079 -44.30606862 21.30324601 -40 19 C-37.32457778 18.47964265 -34.72199828 18.23465502 -32 18 C-32 17.34 -32 16.68 -32 16 C-28.5980513 13.90649311 -25.94727588 13.82057837 -22 14 C-22 13.34 -22 12.68 -22 12 C-16.375 9 -16.375 9 -13 9 C-13 8.01 -13 7.02 -13 6 C-10.03 5.505 -10.03 5.505 -7 5 C-6.67 4.01 -6.34 3.02 -6 2 C-3.85412616 0.684787 -2.52986895 0 0 0 Z " fill="#9A4635" transform="translate(973,1025)"/>
<path d="M0 0 C0.66 0 1.32 0 2 0 C6.61128693 15.67837556 7.19128189 31.59776015 7.75 47.8125 C7.77918518 48.57355042 7.80837036 49.33460083 7.83843994 50.11871338 C7.91981844 52.31463067 7.98573414 54.51046741 8.046875 56.70703125 C8.08651367 57.9906958 8.12615234 59.27436035 8.16699219 60.59692383 C8.0039118 63.92028273 7.36648239 66.00904441 6 69 C5.94356687 71.26603786 5.94356687 71.26603786 6.1875 73.5625 C6.3382635 79.14912538 4.51205639 83.32439105 2.19140625 88.3359375 C1.18660712 90.58273425 0.49470361 92.60040317 0 95 C-0.66 95 -1.32 95 -2 95 C-2 95.66 -2 96.32 -2 97 C-2.99 96.67 -3.98 96.34 -5 96 C-4.5662812 94.49890232 -4.12777365 92.99918823 -3.6875 91.5 C-3.44386719 90.6646875 -3.20023438 89.829375 -2.94921875 88.96875 C-2.21286133 86.66573914 -1.40927283 84.4556263 -0.53125 82.20703125 C9.41402685 55.8658218 5.50521224 26.85822738 0 0 Z " fill="#F3D2C8" transform="translate(1019,878)"/>
<path d="M0 0 C2.48467781 1.85159552 2.9999944 2.99997654 3.73046875 6.0625 C6.60107374 30.79386605 7.21438672 57.14206873 -4 80 C-5.30265807 75.78987752 -4.16071789 73.06499884 -2.6875 69.0625 C3.27224714 51.44362594 4.05327499 29.8543885 0.4453125 11.63671875 C-0.21686893 7.71590765 -0.13223626 3.96708784 0 0 Z " fill="#9E4534" transform="translate(1020,889)"/>
<path d="M0 0 C1.875 0.25 1.875 0.25 4 1 C5.25 3.0625 5.25 3.0625 6 5 C6.66 5 7.32 5 8 5 C8.433125 5.7425 8.86625 6.485 9.3125 7.25 C11.20789743 10.33879581 13.1703304 11.74912645 16 14 C17.10120755 15.2553766 18.18288906 16.52801461 19.25 17.8125 C26.32173228 26.08858843 34.84578264 31.38578704 45 35 C45 35.66 45 36.32 45 37 C45.52078125 37.11214844 46.0415625 37.22429687 46.578125 37.33984375 C49.72857803 38.19859627 52.70829519 39.37623512 55.75 40.5625 C56.92046875 41.01753906 58.0909375 41.47257812 59.296875 41.94140625 C60.63492188 42.46541016 60.63492188 42.46541016 62 43 C62 43.66 62 44.32 62 45 C63.65 45.33 65.3 45.66 67 46 C67 46.66 67 47.32 67 48 C41.12429314 42.02868303 15.12642054 22.42526435 0 1 C0 0.67 0 0.34 0 0 Z " fill="#9C4C3C" transform="translate(786,1000)"/>
<path d="M0 0 C16.36885022 -0.11611648 32.65824395 0.00959054 49 1 C48.67 1.66 48.34 2.32 48 3 C32.16 3 16.32 3 0 3 C0 2.01 0 1.02 0 0 Z " fill="#1D1E19" transform="translate(598,916)"/>
<path d="M0 0 C0.68100266 0.00141495 1.36200531 0.0028299 2.06364441 0.00428772 C4.22346522 0.00985327 6.38317964 0.02239922 8.54296875 0.03515625 C10.01367037 0.04017571 11.48437363 0.04473784 12.95507812 0.04882812 C16.54690915 0.05981137 20.13867855 0.07705203 23.73046875 0.09765625 C23.73046875 0.42765625 23.73046875 0.75765625 23.73046875 1.09765625 C22.42227173 1.12738525 22.42227173 1.12738525 21.08764648 1.15771484 C17.82403682 1.23623061 14.56085121 1.32293594 11.29760742 1.41503906 C9.89046477 1.45310918 8.48323206 1.4879987 7.07592773 1.51953125 C5.04248052 1.56566405 3.00964168 1.62357193 0.9765625 1.68359375 C-0.24361572 1.71501465 -1.46379395 1.74643555 -2.72094727 1.77880859 C-6.45487789 2.11431003 -9.70270594 2.96646695 -13.26953125 4.09765625 C-14.97712 4.55875588 -16.68541549 5.01724923 -18.39453125 5.47265625 C-23.73409066 6.90881361 -28.97899978 8.58762904 -34.2265625 10.328125 C-37.36333356 11.12137776 -40.04828572 11.23729171 -43.26953125 11.09765625 C-34.04171006 4.94577545 -22.95619003 3.26080914 -12.26953125 1.09765625 C-11.51043457 0.91750977 -10.75133789 0.73736328 -9.96923828 0.55175781 C-6.61091956 -0.01312488 -3.40560672 -0.01401484 0 0 Z " fill="#A34E3D" transform="translate(883.26953125,787.90234375)"/>
<path d="M0 0 C17.38213586 9.34972557 28.86746821 29.79203419 37 47 C37 47.66 37 48.32 37 49 C36.34 49 35.68 49 35 49 C34.319375 47.2675 34.319375 47.2675 33.625 45.5 C27.84536276 32.52655895 17.08601433 12.54300717 4 6 C4 5.34 4 4.68 4 4 C3.34 4 2.68 4 2 4 C2 3.34 2 2.68 2 2 C1.34 2 0.68 2 0 2 C0 1.34 0 0.68 0 0 Z " fill="#934232" transform="translate(977,819)"/>
<path d="M0 0 C-11.89105798 8.43881534 -28.47229981 6.077223 -42 4 C-42 3.67 -42 3.34 -42 3 C-40.76507812 2.96261719 -39.53015625 2.92523437 -38.2578125 2.88671875 C-28.59420354 2.53143901 -19.23687692 1.80409176 -9.73876953 -0.0715332 C-3.3278812 -1.29995359 -3.3278812 -1.29995359 0 0 Z " fill="#F7DCD3" transform="translate(926,1051)"/>
<path d="M0 0 C0.66 0 1.32 0 2 0 C3.42258812 3.82320557 4.24042276 6.91281305 4 11 C4.66 11 5.32 11 6 11 C6.38671875 12.08539062 6.7734375 13.17078125 7.171875 14.2890625 C7.6974985 15.73452713 8.22356372 17.17983118 8.75 18.625 C9.00265625 19.33785156 9.2553125 20.05070313 9.515625 20.78515625 C11.18140015 25.32439354 13.2492947 28.99049736 16 33 C16.75 36.375 16.75 36.375 17 39 C10.07264316 30.83237403 6.10712912 20.81456524 2.5625 10.8125 C2.30355957 10.08192383 2.04461914 9.35134766 1.77783203 8.59863281 C0.75631293 5.61330107 0 3.17718886 0 0 Z " fill="#9C4230" transform="translate(764,954)"/>
<path d="M0 0 C0.33 0 0.66 0 1 0 C1 12.54 1 25.08 1 38 C1.66 38 2.32 38 3 38 C4.50156874 41.00313748 4.09281204 43.79067522 4.0625 47.125 C4.05347656 48.40632812 4.04445313 49.68765625 4.03515625 51.0078125 C4.02355469 51.99523437 4.01195312 52.98265625 4 54 C-4.32714523 41.50928216 -2.987148 16.19994464 -0.48730469 2.11035156 C-0.32649414 1.41393555 -0.16568359 0.71751953 0 0 Z " fill="#A65646" transform="translate(760,899)"/>
<path d="M0 0 C0.33 0 0.66 0 1 0 C1.23074219 1.258125 1.46148438 2.51625 1.69921875 3.8125 C3.45785645 13.12551438 5.41027071 22.18057156 8.51245117 31.1484375 C9.05686576 32.74992899 9.53502962 34.37366523 10 36 C9.67 36.66 9.34 37.32 9 38 C7.15172566 34.3874638 5.44950455 30.7910119 4 27 C3.01 27 2.02 27 1 27 C0.05757182 17.96278689 -0.11157151 9.07448253 0 0 Z " fill="#F2CBC0" transform="translate(759,933)"/>
<path d="M0 0 C0.33 0 0.66 0 1 0 C1.22194546 5.46232436 0.97610836 10.58296904 0 15.96875 C-1.14394943 23.12021029 -1.22774355 30.08488662 -1.125 37.3125 C-1.11597656 38.54162109 -1.10695313 39.77074219 -1.09765625 41.03710938 C-1.07440453 44.02495544 -1.04173123 47.01236484 -1 50 C-1.33 50 -1.66 50 -2 50 C-3.21719803 44.57694262 -3.19139214 39.34928561 -3.1875 33.8125 C-3.18741943 32.75200439 -3.18733887 31.69150879 -3.18725586 30.59887695 C-3.03371211 9.10113634 -3.03371211 9.10113634 0 0 Z " fill="#9D3C2A" transform="translate(763,887)"/>
<path d="M0 0 C-0.25 1.875 -0.25 1.875 -1 4 C-1.60199219 4.29003906 -2.20398438 4.58007812 -2.82421875 4.87890625 C-5.43240205 6.22279962 -6.72131001 7.79293471 -8.5625 10.0625 C-11.67024793 13.89008264 -11.67024793 13.89008264 -15 15 C-15.33 15.99 -15.66 16.98 -16 18 C-17.32 17.67 -18.64 17.34 -20 17 C-3.27224199 0 -3.27224199 0 0 0 Z " fill="#A14535" transform="translate(812,815)"/>
<path d="M0 0 C6.30928097 0.62130229 11.96207569 2.49989626 17.9375 4.5625 C19.3925293 5.0565332 19.3925293 5.0565332 20.87695312 5.56054688 C23.25322384 6.3682448 25.62742969 7.18150948 28 8 C27.67 8.66 27.34 9.32 27 10 C20.63569826 8.68764148 14.57878972 6.98780585 8.4375 4.875 C7.61958984 4.59785156 6.80167969 4.32070313 5.95898438 4.03515625 C3.97123432 3.36094863 1.98540651 2.68107796 0 2 C0 1.34 0 0.68 0 0 Z " fill="#373834" transform="translate(664,1017)"/>
<path d="M0 0 C0.99 0.33 1.98 0.66 3 1 C-1.99369753 8.96047475 -7.01817503 16.72948605 -13 24 C-14 21 -14 21 -13.0625 18.8125 C-12.5365625 17.9153125 -12.5365625 17.9153125 -12 17 C-11.34 17 -10.68 17 -10 17 C-10 16.34 -10 15.68 -10 15 C-9.34 15 -8.68 15 -8 15 C-7.67 13.68 -7.34 12.36 -7 11 C-6.34 11 -5.68 11 -5 11 C-4.731875 10.29875 -4.46375 9.5975 -4.1875 8.875 C-2.9318551 5.8350176 -1.49764877 2.9272226 0 0 Z " fill="#9D4837" transform="translate(1006,984)"/>
<path d="M0 0 C5.89224543 1.1404346 11.15707133 2.7329877 16.69140625 5.046875 C19.41840551 6.17274271 22.18739256 7.11180818 25 8 C24.67 8.66 24.34 9.32 24 10 C15.86184696 7.69356492 7.94317882 4.89571216 0 2 C0 1.34 0 0.68 0 0 Z " fill="#343430" transform="translate(637,1007)"/>
<path d="M0 0 C10.56 0 21.12 0 32 0 C32 0.33 32 0.66 32 1 C31.13834229 1.03758423 31.13834229 1.03758423 30.25927734 1.07592773 C27.63100279 1.19269875 25.00301605 1.31505419 22.375 1.4375 C21.47136719 1.47681641 20.56773437 1.51613281 19.63671875 1.55664062 C15.00412265 1.77643533 10.57713009 2.22795396 6 3 C3.65785793 2.7355646 1.31974234 2.41755362 -1 2 C-0.67 1.34 -0.34 0.68 0 0 Z " fill="#992F1F" transform="translate(877,789)"/>
<path d="M0 0 C3.96930989 -0.02465881 7.93859034 -0.04284023 11.90795898 -0.05493164 C13.25920386 -0.05997057 14.61044326 -0.06680177 15.96166992 -0.07543945 C17.90020434 -0.08752419 19.838778 -0.09269828 21.77734375 -0.09765625 C23.52905884 -0.10551147 23.52905884 -0.10551147 25.31616211 -0.11352539 C28 0 28 0 29 1 C30.51165654 1.39148761 32.03469632 1.73972457 33.5625 2.0625 C34.38878906 2.23910156 35.21507812 2.41570313 36.06640625 2.59765625 C36.70449219 2.73042969 37.34257813 2.86320313 38 3 C34.68641061 4.0841698 32.50724431 3.85765233 29.125 3.125 C19.52559203 1.35353818 9.73516538 1.31965439 0 1 C0 0.67 0 0.34 0 0 Z " fill="#F3C9B9" transform="translate(885,787)"/>
<path d="M0 0 C0.33 0 0.66 0 1 0 C1.53699151 7.11513755 -0.30292366 12.44995746 -3 19 C-3.66 18.67 -4.32 18.34 -5 18 C-4.43465035 12.57264332 -3.01959288 8.0489822 -1 3 C-0.67 2.01 -0.34 1.02 0 0 Z " fill="#A95544" transform="translate(769,868)"/>
<path d="M0 0 C2.53443491 2.53443491 3.74205499 3.80675497 5 7 C5 8.32 5 9.64 5 11 C4.01 11 3.02 11 2 11 C2 13.31 2 15.62 2 18 C1.67 18 1.34 18 1 18 C0.67 12.06 0.34 6.12 0 0 Z " fill="#3A3B36" transform="translate(482,230)"/>
<path d="M0 0 C8.07029553 -0.11547323 15.97667603 0.09958689 24 1 C24 1.33 24 1.66 24 2 C15.75432788 4.06141803 8.16809726 2.68166708 0 1 C0 0.67 0 0.34 0 0 Z " fill="#9E4C3D" transform="translate(867,1051)"/>
<path d="M0 0 C3 1 3 1 4.640625 3.6171875 C5.17171875 4.69226563 5.7028125 5.76734375 6.25 6.875 C6.79140625 7.94492187 7.3328125 9.01484375 7.890625 10.1171875 C9 13 9 13 8 16 C6.66141476 13.71125827 5.32898986 11.41930344 4 9.125 C3.6184375 8.47402344 3.236875 7.82304688 2.84375 7.15234375 C0 2.2265625 0 2.2265625 0 0 Z " fill="#A15040" transform="translate(772,977)"/>
<path d="M0 0 C0.66 0 1.32 0 2 0 C0.9706067 7.24638702 -0.67600283 13.46495702 -4 20 C-4.97812873 16.94371936 -5.00835683 15.14722553 -4.00390625 12.109375 C-3.77509766 11.40039062 -3.54628906 10.69140625 -3.31054688 9.9609375 C-3.06369141 9.23132813 -2.81683594 8.50171875 -2.5625 7.75 C-2.19801758 6.63238281 -2.19801758 6.63238281 -1.82617188 5.4921875 C-1.22667019 3.65841765 -0.61455513 1.82877996 0 0 Z " fill="#A14E3E" transform="translate(1020,949)"/>
<path d="M0 0 C-3.10629156 1.68900014 -6.15205051 2.70626667 -9.5625 3.625 C-10.51253906 3.88539063 -11.46257813 4.14578125 -12.44140625 4.4140625 C-15 5 -15 5 -18 5 C-18 4.34 -18 3.68 -18 3 C-12.30979306 -0.2828117 -6.37621985 -0.10993482 0 0 Z " fill="#973D2C" transform="translate(874,790)"/>
<path d="M0 0 C-0.3125 1.875 -0.3125 1.875 -1 4 C-4 6 -4 6 -8 6 C-8.33 6.66 -8.66 7.32 -9 8 C-9.66 7.34 -10.32 6.68 -11 6 C-9.54550599 4.9944239 -8.08627557 3.99569565 -6.625 3 C-5.40683594 2.1646875 -5.40683594 2.1646875 -4.1640625 1.3125 C-2 0 -2 0 0 0 Z " fill="#A44736" transform="translate(824,807)"/>
<path d="M0 0 C1.12894876 0.93274109 2.25300876 1.87140122 3.375 2.8125 C4.00148438 3.33457031 4.62796875 3.85664063 5.2734375 4.39453125 C7 6 7 6 9 9 C7.35 9.33 5.7 9.66 4 10 C3.32845067 8.71086513 2.66291141 7.41859796 2 6.125 C1.62875 5.40570313 1.2575 4.68640625 0.875 3.9453125 C0 2 0 2 0 0 Z " fill="#363732" transform="translate(89,305)"/>
<path d="M0 0 C3.67033927 3.27708863 5.69281189 6.71522208 8 11 C5.6875 10.875 5.6875 10.875 3 10 C0.63898051 6.33634907 0 4.40218532 0 0 Z " fill="#FAE5DD" transform="translate(778,990)"/>
<path d="M0 0 C4.05606165 0.46800711 7.46588679 0.87953208 11 3 C11 3.66 11 4.32 11 5 C8.99759451 4.68143549 6.99788438 4.34578768 5 4 C4.236875 3.87625 3.47375 3.7525 2.6875 3.625 C2.130625 3.41875 1.57375 3.2125 1 3 C0.67 2.01 0.34 1.02 0 0 Z " fill="#242520" transform="translate(449,886)"/>
<path d="M0 0 C3.72433382 1.2125738 7.37802806 2.50859979 11 4 C9.68 5.32 8.36 6.64 7 8 C5.8274869 7.04882866 4.66212985 6.08882991 3.5 5.125 C2.8503125 4.59132813 2.200625 4.05765625 1.53125 3.5078125 C1.0259375 3.01023437 0.520625 2.51265625 0 2 C0 1.34 0 0.68 0 0 Z " fill="#3D3F39" transform="translate(417,873)"/>
<path d="M0 0 C1.91635217 -0.05423638 3.83314925 -0.09289963 5.75 -0.125 C7.35101562 -0.15980469 7.35101562 -0.15980469 8.984375 -0.1953125 C11.92470106 -0.00487687 13.52361878 0.47329896 16 2 C13 3 13 3 10 2 C9.1028125 2.2784375 9.1028125 2.2784375 8.1875 2.5625 C5.0711888 3.18576224 2.9097329 2.12421498 0 1 C0 0.67 0 0.34 0 0 Z " fill="#FEEDE4" transform="translate(872,1054)"/>
<path d="M0 0 C0.99 0.33 1.98 0.66 3 1 C-0.3810038 5.13621084 -3.66590534 8.81316569 -8 12 C-7.67 10.68 -7.34 9.36 -7 8 C-6.34 8 -5.68 8 -5 8 C-5 7.34 -5 6.68 -5 6 C-4.01 5.34 -3.02 4.68 -2 4 C-0.80767387 1.94996045 -0.80767387 1.94996045 0 0 Z " fill="#9A4433" transform="translate(989,1007)"/>
<path d="M0 0 C2.29648357 2.89585905 4.04347557 5.8172031 5.6875 9.125 C6.12449219 9.99382813 6.56148437 10.86265625 7.01171875 11.7578125 C8 14 8 14 8 16 C7.34 16 6.68 16 6 16 C5.73445312 15.38511719 5.46890625 14.77023437 5.1953125 14.13671875 C4.84210937 13.32847656 4.48890625 12.52023437 4.125 11.6875 C3.77695312 10.88699219 3.42890625 10.08648438 3.0703125 9.26171875 C1.97428106 6.8038166 1.97428106 6.8038166 0 4 C0 2.68 0 1.36 0 0 Z " fill="#9C4A3A" transform="translate(1006,852)"/>
<path d="M0 0 C2.31 0 4.62 0 7 0 C6.02433888 1.16959987 5.044375 2.33561177 4.0625 3.5 C3.51722656 4.1496875 2.97195312 4.799375 2.41015625 5.46875 C1.94480469 5.9740625 1.47945313 6.479375 1 7 C0.67 7 0.34 7 0 7 C0 4.69 0 2.38 0 0 Z " fill="#EEF3F5" transform="translate(0,0)"/>
<path d="M0 0 C1.60568666 0.28317926 3.20952047 0.57687791 4.8125 0.875 C6.15248047 1.11863281 6.15248047 1.11863281 7.51953125 1.3671875 C10 2 10 2 13 4 C9.57056481 5.18771723 7.62215325 4.80226223 4.25 3.5625 C3.45078125 3.27503906 2.6515625 2.98757813 1.828125 2.69140625 C1.22484375 2.46324219 0.6215625 2.23507812 0 2 C0 1.34 0 0.68 0 0 Z " fill="#3F403A" transform="translate(679,1022)"/>
<path d="M0 0 C1.875 0.25 1.875 0.25 4 1 C5.25 3.0625 5.25 3.0625 6 5 C6.66 5 7.32 5 8 5 C8.33 6.32 8.66 7.64 9 9 C4.71930097 7.41455592 2.70478088 4.5312417 0 1 C0 0.67 0 0.34 0 0 Z " fill="#9B4230" transform="translate(786,1000)"/>
<path d="M0 0 C3.81684226 1.55500981 6.19195732 4.03595495 9 7 C8.67 7.99 8.34 8.98 8 10 C6.66070495 8.71451591 5.32871357 7.42141845 4 6.125 C2.88625 5.04605469 2.88625 5.04605469 1.75 3.9453125 C0 2 0 2 0 0 Z " fill="#44443D" transform="translate(952,653)"/>
<path d="M0 0 C0.33 0 0.66 0 1 0 C1 1.98 1 3.96 1 6 C0.34 6 -0.32 6 -1 6 C-1.33 7.98 -1.66 9.96 -2 12 C-2.99 12.33 -3.98 12.66 -5 13 C-3.58192622 8.52761347 -1.88695626 4.28853694 0 0 Z " fill="#F3D0C4" transform="translate(1013,974)"/>
<path d="M0 0 C0.66 0 1.32 0 2 0 C3 3 3 3 1.5625 6.1875 C0.7890625 7.5796875 0.7890625 7.5796875 0 9 C-2 6 -2 6 -2 2 C-1.34 2 -0.68 2 0 2 C0 1.34 0 0.68 0 0 Z " fill="#FBE8E1" transform="translate(1022,954)"/>
<path d="M0 0 C3.28788824 3.11016455 5.83735988 6.01618925 8 10 C4.78956118 8.61811547 2.95063635 7.07578097 0.75 4.375 C0.22921875 3.74335938 -0.2915625 3.11171875 -0.828125 2.4609375 C-1.21484375 1.97882813 -1.6015625 1.49671875 -2 1 C-1.34 0.67 -0.68 0.34 0 0 Z " fill="#BFBFBB" transform="translate(695,491)"/>
<path d="M0 0 C-0.66 2.31 -1.32 4.62 -2 7 C-3.32 7.33 -4.64 7.66 -6 8 C-5.62403791 5.21788056 -5.32681541 3.4120716 -3.5625 1.1875 C-2 0 -2 0 0 0 Z " fill="#9F3C2B" transform="translate(792,835)"/>
<path d="M0 0 C2.93200474 2.85276137 5.64315404 5.65079784 8 9 C4.4213696 7.34832443 1.25179812 5.21713508 -2 3 C-1.34 2.01 -0.68 1.02 0 0 Z " fill="#D7D7D5" transform="translate(639,680)"/>
<path d="M0 0 C0.33 0 0.66 0 1 0 C2.03590199 5.05002222 2.10251672 9.87416389 2 15 C-0.31123765 10.69826788 -1.44150494 6.45981322 -0.5625 1.5625 C-0.376875 1.046875 -0.19125 0.53125 0 0 Z " fill="#3C3D38" transform="translate(723,937)"/>
<path d="M0 0 C3.3 0 6.6 0 10 0 C9.67 0.99 9.34 1.98 9 3 C5.625 3.1875 5.625 3.1875 2 3 C1.34 2.01 0.68 1.02 0 0 Z " fill="#24251F" transform="translate(587,915)"/>
<path d="M0 0 C0.33 0 0.66 0 1 0 C1.02698189 1.62490954 1.04638757 3.24994633 1.0625 4.875 C1.07410156 5.77992188 1.08570313 6.68484375 1.09765625 7.6171875 C1 10 1 10 0 12 C-0.66 12 -1.32 12 -2 12 C-1.85831863 10.56208484 -1.71148957 9.1246763 -1.5625 7.6875 C-1.48128906 6.88699219 -1.40007813 6.08648438 -1.31640625 5.26171875 C-1 3 -1 3 0 0 Z " fill="#A3513F" transform="translate(763,887)"/>
<path d="M0 0 C0.99 0.33 1.98 0.66 3 1 C2.34 1 1.68 1 1 1 C3.79420492 4.91603304 3.79420492 4.91603304 8 7 C7.67 7.99 7.34 8.98 7 10 C5.82174642 9.09827532 4.65768423 8.17798498 3.5 7.25 C2.8503125 6.73953125 2.200625 6.2290625 1.53125 5.703125 C0 4 0 4 0 0 Z " fill="#232621" transform="translate(426,878)"/>
<path d="M0 0 C7.57142857 4 7.57142857 4 10 8 C6.50304596 7.35241592 3.87447123 6.09758712 1 4 C0.1875 1.8125 0.1875 1.8125 0 0 Z " fill="#994434" transform="translate(967,811)"/>
<path d="M0 0 C-2.41698499 1.94918144 -4.18746401 3.00815254 -7.3359375 2.9765625 C-9.57364473 2.71537901 -11.78327805 2.40084514 -14 2 C-14 1.67 -14 1.34 -14 1 C-12.41913952 0.63495397 -10.83516093 0.28339494 -9.25 -0.0625 C-8.36828125 -0.25972656 -7.4865625 -0.45695312 -6.578125 -0.66015625 C-4.01320972 -0.99825872 -2.42908361 -0.81158635 0 0 Z " fill="#F3D5CC" transform="translate(926,1051)"/>
<path d="M0 0 C4.455 0.99 4.455 0.99 9 2 C8.34 2.66 7.68 3.32 7 4 C4.27130593 3.96712417 1.7033382 3.43602229 -1 3 C-0.67 2.01 -0.34 1.02 0 0 Z " fill="#363732" transform="translate(741,1039)"/>
<path d="M0 0 C0.91007813 0.10183594 1.82015625 0.20367188 2.7578125 0.30859375 C3.45648437 0.39238281 4.15515625 0.47617188 4.875 0.5625 C4.875 0.8925 4.875 1.2225 4.875 1.5625 C3.43965159 1.7851746 2.00154475 1.99011906 0.5625 2.1875 C-0.23800781 2.30351563 -1.03851562 2.41953125 -1.86328125 2.5390625 C-4.125 2.5625 -4.125 2.5625 -7.125 0.5625 C-4.50184968 -0.74907516 -2.89466564 -0.33399988 0 0 Z " fill="#9F4D3E" transform="translate(865.125,1048.4375)"/>
<path d="M0 0 C0.99 0 1.98 0 3 0 C2.67 3.3 2.34 6.6 2 10 C1.67 10 1.34 10 1 10 C0.67 6.7 0.34 3.4 0 0 Z " fill="#454641" transform="translate(722,893)"/>
<path d="M0 0 C6.70588235 3.41176471 6.70588235 3.41176471 8 6 C4.08788267 4.84414715 1.1254959 3.64465038 -2 1 C-1.34 0.67 -0.68 0.34 0 0 Z " fill="#C0C0BB" transform="translate(632,808)"/>
<path d="M0 0 C4.24822374 0.47202486 6.19989709 2.96655518 9 6 C8.67 6.66 8.34 7.32 8 8 C6.66372225 6.85760183 5.33104612 5.71098945 4 4.5625 C3.2575 3.92441406 2.515 3.28632812 1.75 2.62890625 C1.1725 2.09136719 0.595 1.55382812 0 1 C0 0.67 0 0.34 0 0 Z " fill="#353530" transform="translate(350,620)"/>
<path d="M0 0 C0.99 0 1.98 0 3 0 C3.99 1.98 4.98 3.96 6 6 C5.01 6 4.02 6 3 6 C2.01 4.02 1.02 2.04 0 0 Z " fill="#A04F3F" transform="translate(781,993)"/>
</svg>
