<svg xmlns="http://www.w3.org/2000/svg" viewBox="0 0 1247 1191"><path fill="#2d2d2a" d="m135 130 20 22 9 9 21 24 14 14 41 41 8 7 11 10 7 6 22 19 23 20 44 36 7 5 68 50 79 53 2 2 19 12 3 2 1 1 17 11 3 1 16 11 27 18 46 32 2 2a340 340 0 0 1 44 37l25 25 6 7q39 41 54 96l1 2a142 142 0 0 1-20 117q-23 35-30 75l-1 3a144 144 0 0 0 5 62 124 124 0 0 0 12 30q6 12 14 24l2 3q12 17 27 31-6 1-13-1h-2l-48-12q-82-24-158-61l-2-1q-59-29-110-72l-8-6-26-22v-2l14 5a461 461 0 0 0 149 35h3q30 3 61 2l-2-1-125-50-4-1-38-17-2-1a727 727 0 0 1-187-117l-1-2-6-5-3-2a617 617 0 0 1-84-94l-2-2-35-54-2-3-2-2-1-2 1-2 2 2 22 18 2 2 40 29a1080 1080 0 0 0 155 91 1310 1310 0 0 0 174 73l3 1 3 1 85 35-49-37-7-4a1495 1495 0 0 0-100-62l-33-20-40-26-2-1a750 750 0 0 1-99-75l-22-19-11-10-6-5-12-12-3-3-17-17-2-2-12-12-6-8a464 464 0 0 1-56-69l-2-3q-36-51-63-107l-1-2-2-5-2-3-1-3 1-2 2 2 65 64 4 3 14 13 2 1 5 5 1 1a1539 1539 0 0 0 144 107l49 31 3 2 6 3 34 20 45 25 14 8 25 14q37 19 74 41l8 5q30 17 59 37-1-3-5-7l-21-22-2-2-14-13-2-1a1371 1371 0 0 0-83-66l-2-2-52-39-12-9-3-2-46-36-21-18-21-19-27-26-3-3-12-13-9-9-19-20-20-24-21-25-24-32q-52-70-84-151l-1-2-2-7-1-2z"/><path fill="#2d2e2a" d="m598 151 3 7 1 2 1 3 1 2 3 12q7 23 17 45l1 3a807 807 0 0 0 65 125l2 3a1053 1053 0 0 0 95 131l52 60c11 15 11 15 24 24h3a182 182 0 0 1 125 51 131 131 0 0 1 27 38q7 15 10 30l1 2 1 10q0 7 5 13l16 10 20 12 9 6 8 6-12 4h-2l-40 7q-26 4-51 14l-4 1 3-12a99 99 0 0 0-12-84c-18-27-43-40-73-48h-27q-18 0-37 4l-2 1q-17 5-32 12l-3 1-3 1-6 1-4-7-3-4-2-3-26-35a293 293 0 0 0-58-59l-27-21-12-9-2-2-30-20-3-2-23-15-24-16-2-1q-18-12-28-30l-2-3q-27-50-44-105l-1-3q-13-40-14-83 4 3 6 8l1 3 2 3q35 67 83 124l1 2 24 27 14 15 41 42 42 41 1 1 4 4-6-9q-10-12-17-26l-10-17-1-2q-24-40-40-83l-1-2q-10-24-16-50l-1-3c-12-48-24-109-11-157"/><path fill="#b53a2a" d="m975 816 15 14c23 21 34 55 35 85a116 116 0 0 1-12 61c-15 32-41 58-75 70q-53 19-104-5-37-18-58-55l-2-3a134 134 0 0 1-2-120l1-2 5-9c16-30 47-50 78-60l4-1 3-1c38-9 82 1 112 26"/><path fill="#2f2f2b" d="M931 681q9 6 12 17 2 12-5 20-6 8-16 8t-17-6-7-18v-4q1-8 8-14l2-2q11-5 23-1"/><path fill="#fbe3da" d="M766 872h2l-2 10-2 5-1 3a123 123 0 0 0 6 79l-1 2-5-11h-3l-3-19c-2-17-2-17-1-25v-6l1-10h2l-1-4q0-5 2-10h2l2-9h2zm-10 51 1 2Zm3 23 1 2Z"/><path fill="#993a29" d="m953 802-2 2-3-1-12-5h-2l-9-3v-2h-2l-13-1-13-1h-2l-9 1h-9q-10 0-18 3l-19 4q14-8 31-10l2-1q42-5 80 14"/><path fill="#9a4635" d="M973 1025v2l-6 5-2 1q-34 21-74 21h-3q-10 1-21-2v-1h20q13 2 25-2l8-1 13-4 8-1v-2q4-2 10-2v-2l9-3v-3l6-1 1-3z"/><path fill="#f3d2c8" d="M1019 878h2a190 190 0 0 1 4 69v5q0 7-4 14l-2 7h-2v2l-3-1 1-4 1-3 2-7c10-26 7-55 1-82"/><path fill="#9e4534" d="m1020 889 4 6c3 25 3 51-8 74q-1-5 1-11 9-28 3-57z"/><path fill="#9c4c3c" d="m786 1000 4 1 2 4h2l1 2 7 7 3 4q11 12 26 17v2h2l9 4 3 1 3 1v2l5 1v2c-26-6-52-26-67-47z"/><path fill="#1d1e19" d="m598 916 49 1-1 2h-48z"/><path fill="#a34e3d" d="M883 788h24v1h-3l-34 3-30 7q14-8 31-10l2-1z"/><path fill="#934232" d="M977 819c17 9 29 30 37 47v2h-2l-1-3c-6-13-17-33-30-40v-2h-2v-2h-2z"/><path fill="#f7dcd3" d="M926 1051c-12 8-28 6-42 4v-1h4q14 0 28-3z"/><path fill="#9c4230" d="M764 954h2l2 11h2l1 3 2 5 1 2 6 12 1 6a88 88 0 0 1-17-39"/><path fill="#a65646" d="M760 899h1v38h2q2 5 1 9v7c-8-12-7-38-4-52z"/><path fill="#f2cbc0" d="M759 933h1l9 36-1 2-5-11h-3z"/><path fill="#9d3c2a" d="M763 887h1l-1 16-1 21v13h-1l-1-16v-3c0-22 0-22 3-31"/><path fill="#a14535" d="m812 815-1 4-2 1-6 5q-3 5-6 5l-1 3-4-1c17-17 17-17 20-17"/><path fill="#373834" d="M664 1017q9 1 18 5l3 1 7 2-1 2-19-5-2-1-6-2z"/><path fill="#9d4837" d="m1006 984 3 1-16 23v-5l1-2h2v-2h2l1-4h2l1-2z"/><path fill="#343430" d="m637 1007 17 5 8 3-1 2-24-8z"/><path fill="#992f1f" d="M877 789h32v1h-10l-2 1-14 1-7-1z"/><path fill="#f3c9b9" d="M885 787h25l4 1 5 1 2 1h2-9q-14-2-29-2z"/><path fill="#a95544" d="M769 868h1q1 10-4 19l-2-1 4-15z"/><path fill="#3a3b36" d="m482 230 5 7v4h-3v7h-1z"/><path fill="#9e4c3d" d="m867 1051 24 1v1q-12 3-24-1z"/><path fill="#a15040" d="M772 977q3 1 5 4l1 3 2 3v6l-4-7-1-2z"/><path fill="#a14e3e" d="M1020 949h2q-1 10-6 20v-8l1-2v-2l1-3z"/><path fill="#973d2c" d="m874 790-10 4h-2l-6 1v-2q9-4 18-3"/><path fill="#a44736" d="m824 807-1 4q-3 3-7 2l-1 2-2-2 4-3 3-2z"/><path fill="#363732" d="m89 305 3 3 2 1 4 5-5 1-2-4-1-2z"/><path fill="#fae5dd" d="M778 990q6 5 8 11l-5-1q-3-5-3-10"/><path fill="#242520" d="M449 886q6 0 11 3v2l-6-1h-2l-2-1z"/><path fill="#3d3f39" d="m417 873 11 4-4 4-3-3-2-1-2-2z"/><path fill="#feede4" d="M872 1054h9q4 0 7 2h-6l-2 1-8-2z"/><path fill="#9a4433" d="m989 1007 3 1-11 11 1-4h2v-2l3-2z"/><path fill="#9c4a3a" d="m1006 852 6 9 1 3 1 4h-2l-1-2-1-2-1-3-3-5z"/><path fill="#eef3f5" d="M0 0h7L2 5 1 7H0z"/><path fill="#3f403a" d="m679 1022 13 4h-9l-2-1-2-1z"/><path fill="#9b4230" d="m786 1000 4 1 2 4h2l1 4q-5-2-9-8z"/><path fill="#44443d" d="m952 653 9 7-1 3-4-4-2-2z"/><path fill="#f3d0c4" d="M1013 974h1v6h-2l-1 6-3 1z"/><path fill="#fbe8e1" d="M1022 954h2v6l-2 3q-2-3-2-7h2z"/><path fill="#bfbfbb" d="m695 491 8 10q-4-1-7-6l-2-2-1-1z"/><path fill="#9f3c2b" d="m792 835-2 7-4 1 2-7z"/><path fill="#d7d7d5" d="m639 680 8 9-10-6z"/><path fill="#3c3d38" d="M723 937h1l1 15q-3-6-3-13z"/><path fill="#24251f" d="M587 915h10l-1 3h-7z"/><path fill="#a3513f" d="M763 887h1v8l-1 4h-2v-4l1-3z"/><path fill="#232621" d="m426 878 3 1h-2q3 5 7 6l-1 3-5-4q-2-1-2-6"/><path fill="#994434" d="M967 811c8 4 8 4 10 8l-9-4z"/><path fill="#f3d5cc" d="M926 1051q-3 3-7 3l-7-1v-1l5-1 2-1z"/><path fill="#363732" d="m741 1039 9 2-2 2-8-1z"/><path fill="#9f4d3e" d="m865 1048 3 1h2v1l-4 1h-3l-5-2z"/><path fill="#454641" d="M722 893h3l-1 10h-1z"/><path fill="#c0c0bb" d="M632 808c7 3 7 3 8 6q-6-1-10-5z"/><path fill="#353530" d="M350 620q5 1 9 6l-1 2-4-3-2-2-2-2z"/><path fill="#a04f3f" d="M781 993h3l3 6h-3z"/></svg>